<?xml version="1.0" standalone="no"?>
<!DOCTYPE svg PUBLIC "-//W3C//DTD SVG 20010904//EN"
 "http://www.w3.org/TR/2001/REC-SVG-20010904/DTD/svg10.dtd">
<svg version="1.0" xmlns="http://www.w3.org/2000/svg"
 width="955.000000pt" height="955.000000pt" viewBox="0 0 955.000000 955.000000"
 preserveAspectRatio="xMidYMid meet">
<metadata>
Created by potrace 1.11, written by Peter Selinger 2001-2013
</metadata>
<g transform="translate(0.000000,955.000000) scale(0.100000,-0.100000)"
fill="#000000" stroke="none">
<path d="M4440 9454 c-295 -26 -539 -66 -795 -129 -810 -199 -1543 -610 -2144
-1200 -270 -265 -444 -474 -636 -765 -443 -671 -697 -1405 -766 -2215 -14
-169 -14 -595 0 -755 102 -1138 570 -2148 1361 -2940 775 -775 1778 -1247
2875 -1356 229 -22 661 -22 890 0 1097 109 2100 581 2875 1356 935 935 1426
2198 1369 3522 -12 280 -45 528 -110 842 -22 107 -267 481 -503 770 -844 1032
-1925 1684 -3127 1885 -316 54 -471 66 -834 66 -360 0 -445 -8 -725 -65 -823
-168 -1556 -649 -2057 -1348 -297 -415 -494 -920 -570 -1462 -22 -158 -25
-631 -5 -790 114 -904 573 -1697 1297 -2240 220 -165 340 -234 529 -305 377
-140 787 -171 1210 -89 341 66 605 203 836 434 203 202 316 423 351 687 14
102 7 276 -15 376 -61 277 -267 530 -550 676 -59 30 -75 42 -62 47 32 12 447
-3 541 -20 387 -71 680 -253 921 -572 103 -137 180 -333 210 -535 31 -215 9
-533 -56 -783 -11 -44 -18 -81 -16 -84 6 -5 103 61 211 146 560 436 987 1095
1268 1957 92 280 167 569 223 859 34 176 32 178 94 -74 132 -539 164 -1106 89
-1625 -92 -644 -330 -1196 -733 -1705 -116 -147 -409 -442 -549 -554 -526
-420 -1150 -697 -1819 -811 -701 -118 -1390 -68 -2040 149 -1368 456 -2415
1603 -2758 3019 -43 176 -81 393 -102 582 -20 186 -17 741 5 925 120 972 523
1823 1182 2499 701 719 1565 1139 2565 1247 188 21 621 23 820 5 430 -39 835
-124 1220 -256 1297 -446 2349 -1424 2818 -2621 29 -73 52 -137 52 -143 0 -6
4 -11 10 -11 5 0 7 6 5 13 -2 6 -23 71 -46 142 -296 926 -875 1737 -1661 2325
-669 501 -1422 801 -2278 906 -129 16 -749 28 -870 18z m2550 -3094 c409 -42
730 -330 815 -733 30 -140 16 -346 -33 -487 -115 -332 -422 -573 -774 -609
-217 -22 -434 34 -618 159 -178 121 -318 327 -371 546 -30 123 -30 295 0 418
92 380 409 661 796 705 39 5 73 9 76 10 4 0 53 -4 109 -9z"/>
</g>
</svg>
